<svg xmlns="http://www.w3.org/2000/svg" xmlns:xlink="http://www.w3.org/1999/xlink" version="1.1" id="Layer_1" x="0px" y="0px" viewBox="0 0 487 487" style="enable-background:new 0 0 487 487;" xml:space="preserve">
<g>
	<path style="fill:#EFEFEF;" d="M343.495,99.367c-19.09-13.309-40.224-22.53-62.801-27.404c-1.493-0.326-2.986-0.631-4.496-0.916   c-4.153-0.781-8.398-1.425-12.634-1.916C256.966,68.381,250.216,68,243.5,68c-36.005,0-70.587,10.847-100.007,31.369   C96.535,132.127,68.5,185.821,68.5,243s28.035,110.873,74.995,143.633c19.085,13.306,40.223,22.527,62.81,27.404   c1.493,0.326,2.987,0.631,4.493,0.916c4.13,0.778,8.375,1.422,12.636,1.917c6.588,0.75,13.34,1.131,20.066,1.131   c35.999,0,70.577-10.847,99.996-31.368C390.461,353.876,418.5,300.182,418.5,243S390.461,132.124,343.495,99.367z"/>
	
	
	
	<g>
		<path d="M267.18,214.71c-8.06-20.18-16.23-39.62-16.31-39.81c-1.25-2.97-4.15-4.9-7.37-4.9s-6.13,1.93-7.38,4.9    c-0.08,0.19-8.24,19.63-16.3,39.81C203,256.83,203,260.96,203,263.43c0,22.33,18.17,40.5,40.5,40.5s40.5-18.17,40.5-40.5    C284,260.96,284,256.83,267.18,214.71z M243.5,287.93c-13.43,0-24.37-10.86-24.5-24.26c0.79-5.41,12.06-34.56,24.5-64.82    c12.43,30.26,23.71,59.41,24.5,64.82C267.87,277.07,256.93,287.93,243.5,287.93z"/>
		<path d="M168.5,213c0.001,5.334,0,22.954,0,26.429c0,2.619,0.15,5.058-1.013,7.477c-0.373,0.777-0.771,1.543-1.157,2.313    c-1.504,3.007-10.397,20.793-13.339,26.679c-0.114,0.227-0.227,0.454-0.341,0.681c-1.35,2.71-4.12,4.42-7.15,4.42h-0.84    c-3.09,0-5.91-1.79-7.23-4.58l-6.71-14.22l-6.25,14.05c-1.28,2.89-4.14,4.75-7.31,4.75h-2.5c-3.09,0-5.91-1.79-7.23-4.58    c-2.47-5.229-10.381-21.979-11.867-25.124c-1.322-2.799-3.004-5.442-3.063-8.629c-0.019-1.013,0-2.028,0-3.042    c0-3.715,0-21.465,0-26.626c0-4.42,3.58-8,8-8s8,3.58,8,8v28.21l7.23,15.32l6.77-15.23V213c0-4.42,3.58-8,8-8s8,3.58,8,8v28.21    l6.77,14.35l7.23-14.45V213c0-4.42,3.58-8,8-8S168.5,208.58,168.5,213z"/>
		<path d="M266.5,94v60c0,3.71-2.55,6.93-6.16,7.79c-0.62,0.14-1.23,0.21-1.84,0.21c-2.98,0-5.78-1.67-7.16-4.42l-14.84-29.69V154    c0,4.42-3.58,8-8,8s-8-3.58-8-8V94c0-3.71,2.55-6.93,6.16-7.79c3.61-0.85,7.33,0.89,8.99,4.21l14.85,29.69V94c0-4.42,3.58-8,8-8    C262.92,86,266.5,89.58,266.5,94z"/>
		<path d="M357.5,251v14h22c4.42,0,8,3.58,8,8s-3.58,8-8,8h-30c-4.42,0-8-3.58-8-8v-60c0-4.42,3.58-8,8-8h30c4.42,0,8,3.58,8,8    s-3.58,8-8,8h-22v14h22c4.42,0,8,3.58,8,8s-3.58,8-8,8H357.5z"/>
		<path d="M266.5,370.67v6.66c0,10.85-8.82,19.67-19.67,19.67H228.5c-4.42,0-8-3.58-8-8s3.58-8,8-8h18.33    c2.02,0,3.67-1.65,3.67-3.67v-6.66c0-2.02-1.65-3.67-3.67-3.67h-3.33c-0.57,0-1.13-0.06-1.67-0.18c-0.54,0.12-1.09,0.18-1.67,0.18    c-10.84,0-19.66-8.82-19.66-19.67v-6.66c0-10.85,8.82-19.67,19.66-19.67h18.34c4.42,0,8,3.58,8,8s-3.58,8-8,8h-18.34    c-2.02,0-3.66,1.65-3.66,3.67v6.66c0,2.02,1.64,3.67,3.66,3.67c0.58,0,1.13,0.06,1.67,0.18c0.54-0.12,1.1-0.18,1.67-0.18h3.33    C257.68,351,266.5,359.82,266.5,370.67z"/>
		<path d="M190.47,350.97c-1.48,2.57-4.17,4-6.94,4c-1.35,0-2.73-0.35-3.99-1.08c0,0,0,0,0,0.01c-3.83-2.22-5.14-7.11-2.92-10.93    c2.21-3.83,7.1-5.14,10.92-2.93C191.37,342.25,192.68,347.15,190.47,350.97z"/>
		<path d="M307.54,353.85c-1.26,0.73-2.64,1.08-4,1.08c-2.76,0-5.45-1.43-6.93-4c-2.21-3.82-0.91-8.71,2.91-10.93    c3.83-2.21,8.72-0.91,10.94,2.92C312.67,346.74,311.36,351.64,307.54,353.85z"/>
		<path d="M156.76,326.31c-1.5,1.26-3.32,1.88-5.14,1.88c-2.28,0-4.55-0.97-6.13-2.85c-2.84-3.39-2.41-8.43,0.98-11.28    c3.38-2.84,8.42-2.4,11.27,0.98C160.58,318.42,160.15,323.47,156.76,326.31z"/>
		<path d="M341.57,325.27c-1.59,1.88-3.85,2.85-6.13,2.85c-1.82,0-3.64-0.61-5.14-1.87c-3.39-2.84-3.83-7.89-0.99-11.27    c2.85-3.39,7.89-3.83,11.28-0.99C343.97,316.84,344.41,321.88,341.57,325.27z"/>
		<path d="M157.63,171.09c-1.58,1.89-3.85,2.86-6.14,2.86c-1.81,0-3.63-0.61-5.13-1.87c-3.39-2.84-3.83-7.88-0.99-11.27    c2.84-3.38,7.88-3.83,11.27-0.99C160.02,162.66,160.47,167.7,157.63,171.09z"/>
		<path d="M340.48,171.86c-1.5,1.26-3.33,1.88-5.15,1.88c-2.28,0-4.54-0.97-6.12-2.84c-2.85-3.38-2.42-8.43,0.96-11.28    c3.38-2.84,8.43-2.41,11.27,0.97C344.29,163.97,343.86,169.01,340.48,171.86z"/>
		<path d="M187.4,146.04c-1.26,0.73-2.64,1.08-4.01,1.08c-2.76,0-5.44-1.43-6.92-3.98c-2.22-3.83-0.92-8.72,2.9-10.94    c3.83-2.22,8.72-0.91,10.94,2.91C192.52,138.93,191.22,143.83,187.4,146.04z"/>
		<path d="M310.31,142.98c-1.48,2.57-4.17,4.01-6.94,4.01c-1.36,0-2.73-0.35-3.99-1.08c-3.83-2.2-5.14-7.1-2.93-10.92    c2.21-3.83,7.1-5.14,10.92-2.93c0,0,0,0,0-0.01C311.2,134.26,312.51,139.15,310.31,142.98z"/>
		
	</g>
</g>
<g>
</g>
<g>
</g>
<g>
</g>
<g>
</g>
<g>
</g>
<g>
</g>
<g>
</g>
<g>
</g>
<g>
</g>
<g>
</g>
<g>
</g>
<g>
</g>
<g>
</g>
<g>
</g>
<g>
</g>
</svg>