<?xml version="1.0" encoding="iso-8859-1"?>
<!-- Generator: Adobe Illustrator 19.0.0, SVG Export Plug-In . SVG Version: 6.00 Build 0)  -->
<svg version="1.1" id="Layer_1" xmlns="http://www.w3.org/2000/svg" xmlns:xlink="http://www.w3.org/1999/xlink" x="0px" y="0px"
	 viewBox="0 0 512 512" style="enable-background:new 0 0 512 512;" xml:space="preserve" fill="#fff">
<g>
	<g>
		<path d="M290.482,181.29v-54.297l11.181-77.737L282.812,0h-53.624l-18.851,49.255l11.181,77.737v54.297H0v47.848l70.183,12.391
			v19.695c0,7.203,5.859,13.061,13.061,13.061h15.673c7.203,0,13.061-5.859,13.061-13.061v-12.31l28.386,5.009v28.199
			c0,7.203,5.859,13.061,13.061,13.061h15.673c7.202,0,13.061-5.859,13.061-13.061v-20.813l39.358,6.952v118.309H105.012v47.597
			l121.474,27.958l1.213,8.602h-34.393V486.4h36.602l3.609,25.6h44.966l3.606-25.6h36.605v-15.674h-34.397l1.177-8.352
			l122.559-28.208v-47.597H290.482V268.431l39.358-6.98v20.671c0,7.203,5.859,13.061,13.061,13.061h15.673
			c7.203,0,13.061-5.859,13.061-13.061v-28.09l28.386-5.036v12.228c0,7.203,5.859,13.061,13.061,13.061h15.673
			c7.203,0,13.061-5.859,13.061-13.061v-19.638L512,229.131V181.29H290.482z M96.305,258.612H85.856v-35.527
			c0-2.881,2.344-5.224,5.224-5.224s5.224,2.344,5.224,5.224V258.612z M166.487,279.51h-10.449v-56.425
			c0-2.881,2.344-5.224,5.224-5.224c2.881,0,5.225,2.344,5.225,5.224V279.51z M236.669,445.103c0,1.096-0.617,1.751-0.985,2.044
			c-0.368,0.293-1.144,0.748-2.212,0.503l-112.786-25.958v-19.448h113.371c1.441,0,2.612,1.171,2.612,2.612V445.103z
			 M236.669,251.904c0,1.06-0.586,1.708-0.935,2.001c-0.349,0.293-1.091,0.753-2.133,0.574l-51.442-9.085v-22.308
			c0.001-11.523-9.374-20.898-20.897-20.898c-11.523,0-20.898,9.375-20.898,20.898v14.922l-28.386-5.009v-9.913
			c0-11.523-9.375-20.898-20.898-20.898s-20.898,9.375-20.898,20.898v2.529l-54.509-9.626v-19.026h218.384
			c1.441,0,2.612,1.171,2.612,2.612V251.904z M264.863,496.327h-17.728l-1.399-9.927h20.525L264.863,496.327z M268.471,470.728
			h-24.944v-0.001l-1.307-9.272c1.128-0.566,2.213-1.239,3.226-2.045c4.383-3.49,6.898-8.704,6.898-14.307v-10.947h8.359v10.948
			c0,5.603,2.514,10.818,6.898,14.307c0.716,0.57,1.471,1.07,2.249,1.521L268.471,470.728z M274.808,181.79
			c-8.072,1.898-14.106,9.142-14.106,17.785v52.318c0,5.418,2.38,10.522,6.531,14.005c2.225,1.867,4.823,3.138,7.576,3.785V387.07
			c-8.072,1.898-14.106,9.142-14.106,17.785v13.627h-8.359v-13.627c0-9.012-6.56-16.503-15.151-17.997V269.922
			c3.137-0.545,6.112-1.908,8.617-4.009c4.152-3.485,6.534-8.59,6.534-14.009v-52.328c0-9.012-6.56-16.503-15.151-17.997v-55.707
			L226.43,51.055l13.541-35.381h32.058l13.541,35.381l-10.761,74.817V181.79z M392.359,402.244v19.447L279.574,447.65
			c-1.064,0.243-1.845-0.21-2.213-0.503c-0.369-0.293-0.985-0.948-0.985-2.044v-40.247c0-1.441,1.171-2.612,2.612-2.612H392.359z
			 M355.962,279.51h-10.449v-56.425c0-2.881,2.344-5.224,5.224-5.224c2.881,0,5.224,2.344,5.224,5.224V279.51z M426.144,258.612
			h-10.449v-35.527c0-2.881,2.344-5.224,5.224-5.224c2.881,0,5.224,2.344,5.224,5.224V258.612z M441.817,225.668v-2.582
			c0-11.523-9.375-20.898-20.898-20.898s-20.898,9.375-20.898,20.898v9.992l-28.386,5.036v-15.029
			c0-11.523-9.375-20.898-20.898-20.898c-11.523,0-20.898,9.375-20.898,20.898v22.448l-50.384,8.934
			c-1.052,0.185-1.797-0.28-2.148-0.575c-0.348-0.292-0.933-0.94-0.933-1.999v-52.318c0-1.441,1.171-2.612,2.612-2.612h217.339
			v19.032h0.001L441.817,225.668z"/>
	</g>
</g>
<g>
</g>
<g>
</g>
<g>
</g>
<g>
</g>
<g>
</g>
<g>
</g>
<g>
</g>
<g>
</g>
<g>
</g>
<g>
</g>
<g>
</g>
<g>
</g>
<g>
</g>
<g>
</g>
<g>
</g>
</svg>
