<?xml version="1.0" encoding="iso-8859-1"?>
<!-- Generator: Adobe Illustrator 19.0.0, SVG Export Plug-In . SVG Version: 6.00 Build 0)  -->
<svg version="1.1" id="Layer_1" xmlns="http://www.w3.org/2000/svg" xmlns:xlink="http://www.w3.org/1999/xlink" x="0px" y="0px"
	 viewBox="0 0 469.907 469.907" style="enable-background:new 0 0 469.907 469.907;" xml:space="preserve" fill="#fff">
<g>
	<g>
		<g>
			<path d="M462.408,158.55h-183v-4.5c0-4.142-3.357-7.5-7.5-7.5s-7.5,3.358-7.5,7.5v4.5h-183c-4.142,0-7.5,3.358-7.5,7.5
				c0,4.142,3.358,7.5,7.5,7.5h183v22l-205.521-0.138c-0.046-0.118-0.083-0.238-0.134-0.354L36.35,144.804
				c-0.872-1.955-2.537-3.444-4.576-4.093l-22-7c-2.402-0.766-5.027-0.271-6.988,1.313c-1.96,1.584-2.994,4.047-2.751,6.556
				l5.896,60.917l-4.755,49.057c-0.243,2.509,0.79,4.972,2.75,6.557c1.353,1.093,3.021,1.667,4.715,1.667
				c0.762,0,1.528-0.116,2.273-0.353l17.54-5.58c1.872-0.595,3.436-1.902,4.354-3.638l12.326-23.282
				c0.24,0.033,129.952,5.397,129.952,5.397c9.977,34.139,36.943,61.095,71.087,71.06l-4.017,1.048l4.466,17.12h-7.214
				c-4.143,0-7.5,3.358-7.5,7.5c0,4.142,3.357,7.5,7.5,7.5h129.195c13.631,0,26.279-6.147,34.702-16.866
				c2.559-3.257,1.993-7.972-1.264-10.531c-3.257-2.559-7.972-1.994-10.531,1.264c-5.56,7.076-13.909,11.134-22.907,11.134h-33.485
				l-3.652-14h33.205c18.326,0,33.236-14.91,33.236-33.236c0-43.431-35.333-78.764-78.764-78.764h-39.736v-22h183
				c4.143,0,7.5-3.358,7.5-7.5C469.907,161.909,466.551,158.55,462.408,158.55z M20.986,240.479l-3.784,1.204l3.035-31.316
				l16.68,0.019L20.986,240.479z M20.311,195.367l-4.25-43.916l7.959,2.533l18.46,41.409L20.311,195.367z M52.893,212.271
				l0.988-1.865l117.299,0.136c0.159,2.232,0.39,4.444,0.687,6.635L52.893,212.271z M262.124,321.55l-4.028-15.442
				c5.633,0.943,11.415,1.442,17.312,1.442h40.558l3.652,14H262.124z M322.481,229.893l3.018-19.025
				c30.623,3.043,54.922,27.846,57.213,58.682h-26.368c-10.047,0-19.551-4.382-26.074-12.022S320.908,239.816,322.481,229.893z
				 M310.361,210.55l-2.695,16.993c-2.263,14.263,1.818,28.742,11.196,39.725c9.378,10.983,23.039,17.282,37.481,17.282h23.41
				c-3.283,4.824-8.817,8-15.081,8h-89.265c-42.718,0-78.526-30.084-87.384-70.177l-1.268-11.823H310.361z"/>
			<path d="M228.158,237.55h58.25c4.143,0,7.5-3.358,7.5-7.5c0-4.142-3.357-7.5-7.5-7.5h-58.25c-4.142,0-7.5,3.358-7.5,7.5
				C220.658,234.192,224.016,237.55,228.158,237.55z"/>
			<path d="M214.977,227.183C215.167,227.632,214.797,226.732,214.977,227.183L214.977,227.183z"/>
			<path d="M203.416,235.939c2.515,1.96,6.066,2.135,8.74,0.39c2.972-1.939,4.206-5.867,2.821-9.146
				c-1.106-2.762-3.897-4.593-6.855-4.632c-3.299-0.043-6.268,2.187-7.238,5.32C199.986,230.772,201.02,234.072,203.416,235.939z"/>
		</g>
	</g>
</g>
<g>
</g>
<g>
</g>
<g>
</g>
<g>
</g>
<g>
</g>
<g>
</g>
<g>
</g>
<g>
</g>
<g>
</g>
<g>
</g>
<g>
</g>
<g>
</g>
<g>
</g>
<g>
</g>
<g>
</g>
</svg>
